<svg width="131" height="37" viewBox="0 0 131 37" fill="none" xmlns="http://www.w3.org/2000/svg">
<path fill-rule="evenodd" clip-rule="evenodd" d="M104.905 27.4C102.915 28.2029 101.345 30.9766 98.9568 32.5531C98.8087 32.6509 98.6607 32.6998 98.5619 32.6998C98.3645 32.6998 98.1177 32.5042 98.1177 31.6244C98.1177 28.594 99.1049 27.1276 99.944 24.9769C102.856 17.4985 107.842 11.0954 112.284 4.1058C112.63 3.56813 112.827 2.98159 112.827 2.34617C112.827 1.80851 112.63 1.3686 112.383 0.830935C112.185 0.391028 111.297 0 110.31 0C109.767 0 109.273 0.0488786 108.631 0.0488786C106.311 0.0488786 105.818 3.4215 105.275 4.30131C101.573 10.5089 97.328 18.1828 95.1561 23.6083C94.6799 24.8246 94.1654 26.0409 93.7744 27.2891C91.6282 27.9046 90.0203 30.8928 87.5053 32.5531C87.3573 32.6509 87.2092 32.6998 87.1105 32.6998C86.913 32.6998 86.6662 32.5042 86.6662 31.6244C86.6662 28.594 87.6534 27.1276 88.4925 24.9769C91.4048 17.4985 96.3901 11.0954 100.832 4.1058C101.178 3.56813 101.375 2.98159 101.375 2.34617C101.375 1.80851 101.178 1.3686 100.931 0.830935C100.734 0.391028 99.8453 0 98.8581 0C98.3151 0 97.8216 0.0488786 97.1799 0.0488786C94.86 0.0488786 94.3664 3.4215 93.8234 4.30131C90.1214 10.5089 85.8765 18.1828 83.7046 23.6083C83.532 24.0493 83.3543 24.4902 83.1793 24.9327C83.1253 24.9613 83.0701 24.9923 83.0136 25.0258C80.4962 26.4922 78.3738 29.0827 75.3135 30.8424C74.7211 31.1845 72.8948 32.4554 71.414 32.4554C71.0685 32.4554 70.7724 32.3576 70.4762 32.211C70.032 32.0155 69.5877 31.0868 69.5877 30.7935C69.5877 30.5491 69.6371 30.5002 70.1307 30.2069C74.4744 27.6164 78.0283 23.9016 81.0886 20.1868C82.2238 18.8182 83.7046 16.1299 83.7046 14.1748C83.7046 12.9039 83.2604 11.4376 81.7302 10.8999C80.6443 10.5089 79.4103 10.3134 78.4231 10.3134C75.8071 10.3134 73.882 11.4865 72.7961 12.6107C71.6906 13.7794 70.6212 14.9794 69.6278 16.2217C68.5897 15.3342 67.1256 14.9568 65.7377 14.9568C64.1088 14.9568 61.0485 16.9609 59.469 18.1339C59.2222 18.3295 59.0741 18.4272 58.9754 18.4272C58.926 18.4272 58.8766 18.3783 58.8766 18.2806C58.8766 18.2317 58.9754 17.7918 58.9754 17.0097C58.9754 16.3254 58.8273 15.4456 58.1856 14.3703C58.0375 14.1259 57.149 13.5882 56.0631 13.5882C54.7304 13.5882 53.4964 14.2237 53.4964 14.908C53.4964 15.3967 53.9407 15.5923 53.9407 16.0322C53.9407 16.2766 53.7432 17.4008 53.4471 18.4761C52.6079 21.6043 51.5714 24.6837 50.4855 27.763C49.8932 29.4738 47.9188 30.989 47.9188 32.8464C47.9188 33.4329 48.3136 34.215 48.8566 34.8015C49.7451 35.7791 50.288 36.1213 51.0778 36.1213C51.4233 36.1213 51.8182 36.0235 52.1637 35.7302C52.9041 35.0948 53.299 34.4594 53.4964 33.5796C54.7798 27.8119 58.4818 23.9016 62.5786 21.3111C63.9607 20.4312 65.8364 19.5025 66.0832 19.5025C66.3362 19.5025 66.732 19.6182 67.1309 19.7309C65.9856 21.5806 65.0577 23.5314 64.4543 25.6124C64.2569 26.2967 64.1581 26.9321 64.1581 27.6164C64.1581 28.7406 64.4049 29.9137 64.7998 31.0379C65.3428 32.602 66.2313 33.9706 67.4653 34.606C69.7358 35.7791 71.3647 36.4145 72.8455 36.4145C73.6846 36.4145 74.3263 36.2679 75.0173 35.8769C78.2616 34.0592 80.2506 32.6802 81.6869 31.4554C81.7263 32.6972 81.9735 33.3853 82.8655 34.3127C83.754 35.2414 85.1361 36.0724 86.9624 36.4634C87.2585 36.5123 87.5547 36.5612 87.8509 36.5612C89.9404 36.5612 91.9513 34.8793 93.502 33.2121C93.6815 33.5759 93.9424 33.9232 94.317 34.3127C95.2055 35.2414 96.5876 36.0724 98.4139 36.4634C98.71 36.5123 99.0062 36.5612 99.3023 36.5612C101.75 36.5612 104.09 34.2534 105.708 32.3647C106.248 33.4694 107.755 34.5617 109.569 35.437C110.063 35.6813 110.655 35.828 111.198 35.828C113.321 35.828 114.851 34.1172 116.035 32.8464C119.096 29.5226 120.774 25.4168 122.057 20.2357C122.156 19.8447 122.304 19.6981 122.501 19.6981C122.995 19.6981 123.637 19.6981 124.328 19.6003C125.66 19.4048 126.697 18.9649 127.931 18.7694C128.671 18.6227 128.573 18.3783 129.264 18.1339C129.757 17.9384 130.152 17.7429 130.152 17.2541C130.152 16.4232 128.622 15.5434 126.302 15.5434C124.476 15.5434 123.39 15.69 122.65 15.69C121.514 15.69 121.218 15.3479 120.478 13.4416C120.478 13.4416 121.218 15.3479 120.478 13.4416C120.33 13.0506 120.182 12.8551 119.737 12.464C118.701 11.5842 117.417 11.2909 116.381 11.2909C113.913 11.2909 111.79 13.7838 110.31 15.8855C109.964 16.3743 109.47 16.7653 109.125 17.303C107.092 20.3232 105.145 23.729 104.905 27.4ZM41.7981 10.7533C43.0321 10.7533 43.7232 10.6555 43.8713 10.6555C44.0193 10.6555 44.1181 10.7044 44.1181 10.851C44.1181 10.9488 44.0687 11.0954 43.7232 11.8286C40.7122 18.2317 38.6391 24.7325 36.8128 31.9177C36.7634 32.1132 36.6154 32.8464 36.6154 33.5796C36.6154 34.2639 36.8128 34.997 37.5038 35.3881C38.8365 36.1701 39.9225 36.5123 40.6629 36.5123C41.7488 36.5123 42.2917 35.828 42.2917 34.7038C42.2917 33.7262 42.3411 32.6998 42.4892 31.9177C43.8713 24.7325 45.9444 19.1115 49.1528 13.2461C50.6829 10.46 50.8803 10.3134 50.8803 10.069C50.8803 9.97123 50.831 9.82459 50.7323 9.67795C52.7067 9.23805 55.0759 8.94478 57.2478 8.94478C57.4946 8.94478 58.4818 9.28693 58.6298 9.43356C58.9754 9.77571 59.3209 10.1179 59.9132 10.1179C60.4068 10.1179 61.2459 9.77571 61.5421 9.5802C62.2331 9.09141 62.5786 8.55375 62.5786 7.67393C62.5786 6.843 59.469 4.7901 57.2971 4.7901C54.6317 4.7901 52.2131 5.13225 49.9425 5.57216C48.9553 5.76767 45.4014 6.30533 42.8347 6.30533C40.3667 6.30533 40.5148 5.96318 39.4782 5.96318C38.8859 5.96318 38.5897 6.25645 38.343 6.50085C38.0962 6.74524 37.9481 7.72281 37.9481 8.60263C37.9481 9.04253 37.9481 9.38468 38.1949 9.67795C38.9353 10.5578 40.3667 10.7533 41.7981 10.7533C40.3667 10.7533 41.7981 10.7533 41.7981 10.7533ZM78.3738 14.7124C78.3738 15.1524 78.2257 15.4456 77.6334 16.3743C77.0411 17.303 77.2879 17.303 76.5475 18.2806C75.116 20.1868 73.3391 22.0931 71.0192 24.1949C70.3775 24.7814 70.2788 24.7814 70.18 24.7814C70.1307 24.7814 70.032 24.7325 70.032 24.6348C70.032 24.4882 70.0813 24.2926 70.5749 23.2662C72.1051 20.0891 73.9808 17.9873 76.0539 15.9344C77.1891 14.8102 77.8802 14.4192 78.127 14.4192C78.2751 14.4192 78.3738 14.4681 78.3738 14.7124C78.3738 14.4681 78.3738 14.7124 78.3738 14.7124ZM116.331 15.9833C116.381 15.9833 116.43 16.0322 116.48 16.1299C116.529 16.2766 116.628 16.4232 116.874 16.6187C117.072 16.7653 117.072 17.4496 117.072 17.9873C117.072 22.7285 114.357 26.6388 111.692 30.598C111.099 31.4778 110.754 31.6244 110.458 31.6244C110.211 31.6244 109.816 30.989 109.668 30.598C109.47 30.0603 109.421 29.4249 109.421 29.1805C109.421 25.368 113.074 19.6981 115.492 16.5698C115.887 16.0322 116.183 15.9833 116.331 15.9833C116.183 15.9833 116.331 15.9833 116.331 15.9833Z" fill="#0079BF"/>
<path d="M27.2663 5.40015H3.89519C1.74394 5.40015 0 7.12708 0 9.25736V32.4006C0 34.5309 1.74394 36.2578 3.89519 36.2578H27.2663C29.4176 36.2578 31.1615 34.5309 31.1615 32.4006V9.25736C31.1615 7.12708 29.4176 5.40015 27.2663 5.40015Z" fill="url(#paint0_linear)"/>
<path d="M25.241 9.41162H19.4762C18.4436 9.41162 17.6065 10.2405 17.6065 11.2631V21.0604C17.6065 22.0829 18.4436 22.9119 19.4762 22.9119H25.241C26.2736 22.9119 27.1107 22.0829 27.1107 21.0604V11.2631C27.1107 10.2405 26.2736 9.41162 25.241 9.41162Z" fill="white"/>
<path d="M11.6857 9.41162H5.92081C4.88821 9.41162 4.05112 10.2405 4.05112 11.2631V28.7748C4.05112 29.7973 4.88821 30.6263 5.92081 30.6263H11.6857C12.7183 30.6263 13.5554 29.7973 13.5554 28.7748V11.2631C13.5554 10.2405 12.7183 9.41162 11.6857 9.41162Z" fill="white"/>
<defs>
<linearGradient id="paint0_linear" x1="15.5808" y1="5.40015" x2="15.5808" y2="36.2578" gradientUnits="userSpaceOnUse">
<stop stop-color="#0079BF"/>
<stop offset="1" stop-color="#0079BF"/>
</linearGradient>
</defs>
</svg>
