<svg width="152" height="34" viewBox="0 0 152 34" fill="none" xmlns="http://www.w3.org/2000/svg">
<path d="M12.4712 6.67041C9.54403 6.67041 7.84676 7.99956 7.03503 8.88566C6.93664 8.09801 6.42008 7.08885 4.40304 7.08885H0V11.667H1.79566C2.09083 11.667 2.18922 11.7655 2.18922 12.0608V33.0073H7.404V25.18V24.5893C8.21573 25.3277 9.76541 26.3615 12.2006 26.3615C17.2924 26.3615 20.8591 22.3248 20.8591 16.516C20.8837 10.6332 17.4892 6.67041 12.4712 6.67041V6.67041ZM11.4135 21.8079C8.6093 21.8079 7.33021 19.125 7.33021 16.6144C7.33021 12.6762 9.47023 11.2732 11.4873 11.2732C13.9471 11.2732 15.6197 13.39 15.6197 16.5652C15.5951 20.208 13.4797 21.8079 11.4135 21.8079" fill="#203232"/>
<path d="M27.8944 20.9955V9.89465C27.8944 8.024 26.9843 7.11328 25.1394 7.11328H20.4658V11.6915H22.2615C22.5567 11.6915 22.655 11.7899 22.655 12.0853V23.1369C22.655 25.0322 23.5406 25.9183 25.41 25.9183H30.0836V21.3647H28.288C28.0174 21.3893 27.8944 21.2663 27.8944 20.9955" fill="#203232"/>
<path d="M41.5217 6.67041C38.5946 6.67041 36.8973 7.99956 36.061 8.88566C35.9626 8.09801 35.446 7.08885 33.429 7.08885H29.0505V11.667H30.8462C31.1414 11.667 31.2398 11.7655 31.2398 12.0608V33.0073H36.5037V25.18V24.5893C37.3155 25.3277 38.8897 26.3615 41.3003 26.3615C46.3921 26.3615 49.9588 22.3248 49.9588 16.516C49.9588 10.6332 46.5643 6.67041 41.5217 6.67041V6.67041ZM40.464 21.8079C37.6598 21.8079 36.3807 19.125 36.3807 16.6144C36.3807 12.6762 38.5208 11.2732 40.5378 11.2732C42.9976 11.2732 44.6703 13.39 44.6703 16.5652C44.6703 20.208 42.5548 21.8079 40.464 21.8079" fill="#203232"/>
<path d="M59.7738 6.67041C54.1409 6.67041 50.2298 10.7317 50.2298 16.516C50.2298 22.2264 54.4607 26.3615 60.315 26.3615C64.9148 26.3615 67.719 23.6294 67.842 23.5309L68.0633 23.334L65.8003 19.5681L65.456 19.8881C65.4314 19.9127 63.3651 21.8079 60.6348 21.8079C58.0274 21.8079 56.1087 20.208 55.6414 17.6974H68.0142L68.0388 17.3528C68.0388 17.3036 68.1617 16.196 68.1617 15.6545C68.1617 10.2887 64.7918 6.67041 59.7738 6.67041V6.67041ZM55.8381 13.8084C56.4039 11.9624 57.8306 10.904 59.7738 10.904C61.3481 10.904 62.5534 12.1101 62.7748 13.8084H55.8381Z" fill="#203232"/>
<path d="M87.1508 20.9957V2.80603C87.1508 0.935371 86.2407 0.0246582 84.3713 0.0246582H79.6977V4.60284H81.4933C81.7885 4.60284 81.8869 4.70129 81.8869 4.99666V8.29492C81.1243 7.60573 79.6239 6.69502 77.0165 6.69502C71.9493 6.69502 68.4072 10.7563 68.4072 16.5406C68.4072 22.4233 71.8017 26.3861 76.8197 26.3861C79.6976 26.3861 81.3703 25.057 82.1821 24.1216C82.2804 24.9339 82.8216 25.9677 84.7648 25.9677H89.2909V21.4141H87.5444C87.2492 21.3895 87.1508 21.2664 87.1508 20.9957V20.9957ZM77.8282 21.8079C75.3438 21.8079 73.7449 19.7404 73.7449 16.516C73.7449 13.39 75.4176 11.2978 77.902 11.2978C80.7308 11.2978 81.9853 13.9069 81.9853 16.4913C81.9853 20.4296 79.8452 21.8079 77.8282 21.8079Z" fill="#203232"/>
<path d="M100.926 6.84277C98.7612 6.84277 96.7441 8.09808 95.5634 10.0918V9.67337C95.5634 7.97501 94.6287 7.08891 92.7838 7.08891H88.307V11.6671H90.1027C90.3978 11.6671 90.4962 11.7655 90.4962 12.0609V25.9185H95.711V18.3867C95.711 17.4021 95.834 16.4422 96.08 15.5561C96.8671 12.947 98.958 12.0363 100.631 12.0363C101.221 12.0363 101.664 12.1101 101.664 12.1101L102.107 12.184V6.99046L101.787 6.94123C101.787 6.91662 101.344 6.84277 100.926 6.84277" fill="#203232"/>
<path d="M109.535 20.9955V9.89465C109.535 8.024 108.625 7.11328 106.78 7.11328H102.549V11.6915H103.902C104.197 11.6915 104.296 11.7899 104.296 12.0853V23.1369C104.296 25.0322 105.181 25.9183 107.051 25.9183H111.724V21.3647H109.929C109.658 21.3893 109.535 21.2663 109.535 20.9955" fill="#203232"/>
<path d="M129.238 7.11328H126.459C124.835 7.11328 123.95 7.6794 123.433 9.05778L120.038 18.5587C119.916 18.9033 119.817 19.2972 119.719 19.691C119.62 19.3218 119.497 18.9033 119.374 18.5587L115.98 9.05778C115.463 7.65479 114.627 7.11328 112.954 7.11328H110.003V11.6915H110.765C111.183 11.6915 111.306 11.8391 111.405 12.0853L116.669 25.9429H122.547L127.811 12.0853C127.91 11.8391 128.033 11.6915 128.451 11.6915H129.263V7.11328H129.238Z" fill="#203232"/>
<path d="M138.241 6.67041C132.608 6.67041 128.697 10.7317 128.697 16.516C128.697 22.2264 132.928 26.3615 138.782 26.3615C143.382 26.3615 146.186 23.6294 146.309 23.5309L146.53 23.334L144.267 19.5681L143.923 19.8881C143.898 19.9127 141.832 21.8079 139.126 21.8079C136.519 21.8079 134.6 20.208 134.133 17.6974H146.506L146.53 17.3528C146.53 17.3036 146.629 16.196 146.629 15.6545C146.629 10.2887 143.259 6.67041 138.241 6.67041V6.67041ZM134.305 13.8084C134.871 11.9624 136.298 10.904 138.241 10.904C139.815 10.904 141.021 12.1101 141.242 13.8084H134.305Z" fill="#203232"/>
<path d="M27.5252 0H22.8762V4.89816H27.5252V0Z" fill="#203232"/>
<path d="M109.191 0H104.542V4.89816H109.191V0Z" fill="#203232"/>
<path d="M146.53 7.11346H147.219V8.98411H147.735V7.11346H148.424V6.67041H146.53V7.11346Z" fill="#203232"/>
<path d="M150.466 6.67041L149.95 8.27031L149.409 6.67041H148.695V8.98411H149.163V7.3596H149.187L149.753 8.98411H150.147L150.712 7.3596V8.98411H151.18V6.67041H150.466Z" fill="#203232"/>
</svg>
