<svg width="166" height="48" viewBox="0 0 166 48" fill="none" xmlns="http://www.w3.org/2000/svg">
<path d="M165.371 32.291L160.303 25.7242L164.928 22.0173C165.073 21.9133 165.191 21.7753 165.271 21.6153C165.351 21.4553 165.391 21.2781 165.387 21.0992C165.392 20.9541 165.367 20.8094 165.314 20.6742C165.261 20.539 165.18 20.4162 165.078 20.3134C164.975 20.2107 164.852 20.1303 164.717 20.0771C164.582 20.024 164.437 19.9993 164.292 20.0045C164.147 19.997 164.002 20.0217 163.868 20.0767C163.734 20.1318 163.614 20.216 163.516 20.3231L156.878 25.7242V13.862C156.874 13.7136 156.84 13.5675 156.779 13.432C156.718 13.2966 156.631 13.1746 156.522 13.0729C156.414 12.9712 156.287 12.8919 156.148 12.8395C156.009 12.787 155.861 12.7625 155.712 12.7673C155.567 12.7621 155.422 12.7868 155.287 12.8399C155.152 12.8931 155.029 12.9735 154.927 13.0763C154.824 13.179 154.743 13.3018 154.69 13.437C154.637 13.5722 154.612 13.7169 154.618 13.862V32.9976C154.622 33.1461 154.656 33.2922 154.717 33.4276C154.778 33.563 154.865 33.6851 154.973 33.7867C155.082 33.8884 155.209 33.9678 155.348 34.0202C155.487 34.0726 155.635 34.0971 155.783 34.0923C155.928 34.0976 156.073 34.0728 156.208 34.0197C156.344 33.9665 156.466 33.8861 156.569 33.7834C156.672 33.6807 156.752 33.5579 156.805 33.4227C156.859 33.2875 156.883 33.1428 156.878 32.9976V28.3726L158.432 27.1375L163.55 33.5985C163.658 33.7462 163.795 33.8698 163.953 33.9611C164.111 34.0524 164.287 34.1094 164.469 34.1285C164.614 34.1338 164.758 34.109 164.894 34.0559C165.029 34.0027 165.152 33.9223 165.254 33.8196C165.357 33.7169 165.437 33.5941 165.491 33.4589C165.544 33.3237 165.569 33.179 165.563 33.0338C165.591 32.9049 165.59 32.7713 165.559 32.6431C165.528 32.5148 165.469 32.3949 165.387 32.2924L165.371 32.291ZM147.328 25.9009C145.634 25.3014 144.259 24.8062 144.259 23.584C144.259 22.3619 145.812 22.0303 146.659 22.0303C147.818 21.968 148.918 22.3923 149.729 23.196C149.827 23.3029 149.947 23.387 150.082 23.442C150.216 23.4971 150.36 23.5219 150.505 23.5145C150.766 23.5083 151.014 23.4021 151.198 23.2179C151.382 23.0338 151.488 22.7859 151.494 22.5255C151.487 22.2703 151.401 22.0236 151.248 21.8189C150.693 21.1622 149.992 20.6447 149.202 20.3077C148.411 19.9707 147.552 19.8238 146.694 19.8786C143.834 19.8786 142.069 21.3613 142.069 23.5855C142.069 26.3744 144.541 27.2055 146.694 27.999C148.319 28.529 149.764 28.988 149.764 30.2232C149.764 31.4583 147.928 32.1635 146.833 32.1635C145.501 32.2316 144.206 31.7291 143.267 30.7879C143.052 30.5845 142.782 30.4494 142.491 30.3998C142.23 30.4061 141.982 30.5123 141.798 30.6964C141.614 30.8806 141.508 31.1285 141.502 31.3888C141.509 31.644 141.595 31.8907 141.748 32.0955C142.392 32.8166 143.189 33.3842 144.081 33.7569C144.973 34.1295 145.937 34.2975 146.903 34.2487C150.151 34.2487 152.058 32.6949 152.058 30.2232C152.058 27.7514 149.48 26.6567 147.327 25.9153L147.328 25.9009ZM133.983 21.8754C136.3 21.8754 137.459 23.1815 137.55 25.7242H130.03C130.277 23.2524 131.655 21.8754 133.983 21.8754ZM139.775 25.7242C139.77 24.4097 139.39 23.1239 138.681 22.0173C138.145 21.2896 137.433 20.7102 136.611 20.3336C135.79 19.9569 134.886 19.7953 133.985 19.8641C130.067 19.8641 127.806 22.4763 127.806 27.0318C127.806 31.5872 130.03 34.2689 134.302 34.2689C136.027 34.3313 137.71 33.7243 138.998 32.5748C139.119 32.4852 139.218 32.3682 139.285 32.2333C139.353 32.0984 139.387 31.9494 139.386 31.7986C139.38 31.5383 139.274 31.2904 139.089 31.1062C138.905 30.9221 138.657 30.8159 138.397 30.8096C138.173 30.8132 137.959 30.9017 137.797 31.0572C136.843 31.8453 135.646 32.2814 134.408 32.2924C131.865 32.2924 130.242 30.5982 130.171 27.8788H138.468C139.774 27.7369 139.774 26.5032 139.774 25.7256L139.775 25.7242ZM119.329 32.2186C116.717 32.2186 115.411 30.5244 115.411 27.0636C115.411 23.6029 116.717 21.9087 119.329 21.9087C120.103 21.9512 120.852 22.1951 121.502 22.6162C122.152 23.0373 122.681 23.621 123.036 24.3095V28.335C123.002 30.7358 121.625 32.2186 119.295 32.2186H119.329ZM124.131 12.6949C123.986 12.6897 123.841 12.7144 123.706 12.7675C123.571 12.8207 123.448 12.9011 123.345 13.0039C123.243 13.1066 123.162 13.2294 123.109 13.3646C123.056 13.4998 123.031 13.6445 123.036 13.7896V21.3454C122.035 20.3521 120.682 19.7938 119.272 19.7917C115.27 19.7917 113.27 22.1809 113.27 26.9594C113.27 31.761 115.423 34.1965 119.448 34.1965C123.474 34.1965 125.379 31.9724 125.379 28.2655V13.8606C125.346 13.5447 125.198 13.252 124.964 13.0374C124.73 12.8227 124.426 12.7009 124.108 12.6949H124.131ZM105.384 19.7902C104.683 19.7597 103.984 19.8903 103.341 20.1719C102.699 20.4536 102.129 20.8788 101.677 21.4149V13.8577C101.682 13.7033 101.655 13.5494 101.598 13.4057C101.541 13.262 101.456 13.1315 101.347 13.0223C101.237 12.913 101.107 12.8273 100.963 12.7705C100.819 12.7137 100.665 12.687 100.511 12.6921C100.359 12.6858 100.208 12.7123 100.068 12.7697C99.9275 12.8271 99.801 12.914 99.6972 13.0246C99.5933 13.1352 99.5145 13.2668 99.4661 13.4106C99.4176 13.5543 99.4006 13.7068 99.4164 13.8577V32.9932C99.4115 33.1417 99.436 33.2897 99.4885 33.4286C99.5409 33.5676 99.6202 33.6949 99.7219 33.8031C99.8236 33.9114 99.9456 33.9986 100.081 34.0596C100.216 34.1207 100.363 34.1544 100.511 34.1589C100.665 34.1639 100.819 34.1372 100.963 34.0804C101.107 34.0236 101.237 33.9379 101.347 33.8287C101.456 33.7194 101.541 33.5889 101.598 33.4452C101.655 33.3015 101.682 33.1477 101.677 32.9932V25.7908C101.677 23.1786 102.912 21.8725 105.384 21.8725C107.855 21.8725 108.702 22.9672 108.702 25.5794V32.9932C108.697 33.1477 108.724 33.3015 108.781 33.4452C108.838 33.5889 108.923 33.7194 109.033 33.8287C109.142 33.9379 109.272 34.0236 109.416 34.0804C109.56 34.1372 109.714 34.1639 109.868 34.1589C110.02 34.1651 110.171 34.1386 110.311 34.0813C110.452 34.0239 110.578 33.9369 110.682 33.8264C110.786 33.7158 110.865 33.5841 110.913 33.4404C110.962 33.2966 110.979 33.1441 110.963 32.9932V25.1957C110.89 21.6292 109.056 19.7946 105.349 19.7946L105.384 19.7902ZM92.0387 25.898C90.3445 25.2985 88.9689 24.8033 88.9689 23.5811C88.9689 22.359 90.5226 22.0274 91.3697 22.0274C92.5281 21.9651 93.6286 22.3894 94.4395 23.1931C94.6372 23.3876 94.9035 23.4967 95.1809 23.4967C95.4583 23.4967 95.7246 23.3876 95.9223 23.1931C96.0293 23.0951 96.1133 22.9748 96.1684 22.8406C96.2234 22.7065 96.2482 22.5618 96.2409 22.4169C96.2332 22.1617 96.1473 21.915 95.9947 21.7103C95.4399 21.0536 94.739 20.5361 93.9482 20.1991C93.1574 19.8621 92.2986 19.7152 91.4407 19.77C88.5808 19.77 86.8157 21.2527 86.8157 23.4769C86.8157 26.2658 89.2875 27.0969 91.4407 27.8904C93.0654 28.4204 94.5105 28.8794 94.5105 30.1146C94.5105 31.3497 92.6744 32.0549 91.5797 32.0549C90.2475 32.123 88.953 31.6205 88.0132 30.6793C87.7987 30.4759 87.5285 30.3408 87.2371 30.2912C86.9768 30.2975 86.7288 30.4037 86.5447 30.5878C86.3605 30.772 86.2543 31.0199 86.2481 31.2802C86.2558 31.5354 86.3417 31.7821 86.4943 31.9869C87.1196 32.7236 87.899 33.314 88.7774 33.7166C89.6559 34.1192 90.612 34.324 91.5782 34.3167C94.8261 34.3167 96.7332 32.763 96.7332 30.2912C96.7332 27.8195 94.1557 26.6712 92.0025 25.9139L92.0387 25.898ZM78.7633 21.8725C81.0801 21.8725 82.2385 23.1786 82.3298 25.7213H74.774C75.0202 23.2495 76.3987 21.8725 78.7271 21.8725H78.7633ZM84.4482 25.7213C84.4427 24.4068 84.063 23.121 83.3535 22.0144C82.8176 21.2867 82.1054 20.7073 81.2839 20.3307C80.4625 19.954 79.5587 19.7924 78.6576 19.8612C74.7393 19.8612 72.4789 22.4734 72.4789 27.0289C72.4789 31.5843 74.7031 34.3022 78.9399 34.3022C80.6652 34.3646 82.3478 33.7576 83.6359 32.6081C83.7572 32.5185 83.8556 32.4015 83.9231 32.2666C83.9905 32.1317 84.0251 31.9827 84.0239 31.8319C84.0177 31.5716 83.9115 31.3237 83.7273 31.1395C83.5432 30.9554 83.2953 30.8492 83.0349 30.8429C82.8109 30.8465 82.5967 30.935 82.4355 31.0905C81.4805 31.8786 80.2838 32.3147 79.0457 32.3257C76.5029 32.3257 74.8797 30.6315 74.8088 27.9122H83.1406C84.4468 27.7355 84.4468 26.5003 84.4468 25.7228L84.4482 25.7213ZM70.7717 19.8641C70.0281 19.8265 69.2869 19.9746 68.615 20.2952C67.943 20.6157 67.3615 21.0986 66.9229 21.7002V21.1007C66.9229 20.7915 66.8 20.495 66.5814 20.2764C66.3628 20.0578 66.0664 19.935 65.7572 19.935C65.448 19.935 65.1516 20.0578 64.933 20.2764C64.7144 20.495 64.5915 20.7915 64.5915 21.1007V32.999C64.5865 33.1535 64.6132 33.3073 64.67 33.451C64.7268 33.5947 64.8125 33.7252 64.9218 33.8345C65.031 33.9437 65.1615 34.0294 65.3052 34.0862C65.4489 34.143 65.6028 34.1697 65.7572 34.1647C65.913 34.1752 66.0692 34.1522 66.2154 34.0973C66.3615 34.0424 66.4943 33.9569 66.6047 33.8465C66.7151 33.7361 66.8006 33.6034 66.8555 33.4572C66.9104 33.311 66.9333 33.1548 66.9229 32.999V26.4323C66.9229 23.6434 68.4056 22.0187 70.7717 22.0187C70.9169 22.024 71.0616 21.9993 71.1968 21.9461C71.332 21.893 71.4548 21.8125 71.5575 21.7098C71.6602 21.6071 71.7406 21.4843 71.7938 21.3491C71.8469 21.2139 71.8717 21.0692 71.8664 20.924C71.8577 20.6399 71.7384 20.3704 71.5339 20.1729C71.3294 19.9755 71.0559 19.8657 70.7717 19.867V19.8641ZM61.9446 13.474C58.0957 13.474 56.6839 16.1919 56.6839 18.7346V20.2883H55.9425C55.7846 20.2593 55.6223 20.2653 55.467 20.306C55.3117 20.3466 55.1672 20.421 55.0438 20.5237C54.9204 20.6264 54.8212 20.755 54.753 20.9004C54.6849 21.0458 54.6496 21.2044 54.6496 21.3649C54.6496 21.5255 54.6849 21.6841 54.753 21.8295C54.8212 21.9748 54.9204 22.1035 55.0438 22.2062C55.1672 22.3089 55.3117 22.3833 55.467 22.4239C55.6223 22.4646 55.7846 22.4706 55.9425 22.4415H56.7187V33.1033C56.7136 33.2577 56.7403 33.4116 56.7971 33.5553C56.8539 33.699 56.9396 33.8295 57.0489 33.9387C57.1581 34.048 57.2887 34.1337 57.4324 34.1905C57.5761 34.2473 57.7299 34.274 57.8843 34.2689C58.0401 34.2794 58.1963 34.2564 58.3425 34.2016C58.4887 34.1467 58.6214 34.0612 58.7318 33.9508C58.8422 33.8404 58.9277 33.7076 58.9826 33.5615C59.0375 33.4153 59.0605 33.2591 59.05 33.1033V22.3344H61.5218C61.6787 22.3615 61.8397 22.3539 61.9935 22.3123C62.1473 22.2706 62.2901 22.1959 62.4119 22.0933C62.5338 21.9907 62.6317 21.8626 62.6989 21.7182C62.7661 21.5738 62.8009 21.4164 62.8009 21.2571C62.8009 21.0978 62.7661 20.9404 62.6989 20.7959C62.6317 20.6515 62.5338 20.5235 62.4119 20.4209C62.2901 20.3182 62.1473 20.2435 61.9935 20.2018C61.8397 20.1602 61.6787 20.1526 61.5218 20.1797H59.0427V18.626C59.0427 17.2504 59.5727 15.5562 62.043 15.5562C62.1803 15.5657 62.318 15.5475 62.4481 15.5027C62.5782 15.4579 62.698 15.3875 62.8003 15.2956C62.904 15.2045 62.9875 15.0928 63.0456 14.9677C63.1037 14.8425 63.1351 14.7066 63.1377 14.5687C63.1193 14.2721 62.9885 13.9937 62.7719 13.7903C62.5553 13.5869 62.2692 13.4738 61.9721 13.474H61.9446Z" fill="#4D4D4D"/>
<path d="M23.4217 0.000220379H41.0759C41.8565 -0.0065382 42.6306 0.14222 43.353 0.437818C44.0755 0.733417 44.7319 1.16993 45.2838 1.7219C45.8358 2.27387 46.2723 2.93024 46.5679 3.65271C46.8635 4.37517 47.0123 5.14928 47.0055 5.92985V23.5841C47.004 29.7958 44.5357 35.7527 40.1434 40.145C35.751 44.5374 29.7941 47.0057 23.5824 47.0072H23.4492C20.3712 47.0106 17.3226 46.4075 14.4778 45.2323C11.633 44.0571 9.04759 42.3328 6.86939 40.1581C4.69135 37.983 2.96354 35.3999 1.78482 32.5565C0.606093 29.713 -0.000413251 26.665 2.11254e-07 23.587C2.11254e-07 10.6069 10.4692 0.137781 23.4231 0.00456342L23.4217 0.000220379Z" fill="#25C16F"/>
<path d="M23.4216 10.4692C20.567 10.4692 17.8294 11.6032 15.8109 13.6217C13.7924 15.6402 12.6585 18.3778 12.6585 21.2324V28.5506C12.6799 29.4933 13.0638 30.3914 13.7305 31.0581C14.3973 31.7248 15.2953 32.1088 16.238 32.1301H19.2832V23.7316H15.1708V21.3815C15.4213 16.9549 19.0833 13.4941 23.5172 13.4941C27.951 13.4941 31.6261 16.9694 31.8635 21.3815V23.7316H27.6976V32.1301H30.4488V32.2633C30.435 33.1373 30.0817 33.9717 29.4636 34.5897C28.8455 35.2078 28.0112 35.5612 27.1372 35.575H23.8502C23.5838 35.575 23.2898 35.7082 23.2898 35.9761C23.3043 36.2657 23.5461 36.5234 23.8502 36.5364H27.1618C28.2929 36.5292 29.3756 36.0767 30.1754 35.2769C30.9752 34.4771 31.4277 33.3944 31.4349 32.2633V31.9969C32.2202 31.8176 32.9209 31.3758 33.4211 30.7445C33.9213 30.1131 34.1912 29.33 34.1862 28.5246V21.367C34.3353 15.3027 29.5279 10.4692 23.4216 10.4692Z" fill="white"/>
</svg>
