<svg width="26" height="24" viewBox="0 0 26 24" fill="none" xmlns="http://www.w3.org/2000/svg">
<path d="M12.7723 4.57588C13.0341 3.97572 13.8853 3.97572 14.1472 4.57588L15.6149 7.94048C15.7202 8.18202 15.9446 8.35054 16.206 8.38439L20.04 8.88097C20.7004 8.9665 20.9301 9.80605 20.4053 10.2159L17.5032 12.4821C17.2712 12.6633 17.1666 12.9634 17.2358 13.2495L18.1733 17.1263C18.3341 17.7911 17.5939 18.3065 17.0261 17.9252L13.8779 15.8107C13.625 15.6408 13.2945 15.6408 13.0415 15.8107L9.89325 17.9252C9.32548 18.3066 8.58534 17.7911 8.74609 17.1264L9.68351 13.2495C9.75269 12.9634 9.64812 12.6633 9.41613 12.4821L6.51409 10.2159C5.98929 9.80604 6.21903 8.9665 6.87937 8.88097L10.7134 8.38439C10.9748 8.35054 11.1992 8.18202 11.3046 7.94048L12.7723 4.57588Z" fill="#5ADD9E"/>
</svg>
