<svg width="121" height="42" viewBox="0 0 121 42" fill="none" xmlns="http://www.w3.org/2000/svg">
<path d="M42.7971 31.6812C42.8548 33.3937 43.2876 34.8921 44.0954 36.1765C44.9322 37.4894 46.1151 38.5169 47.6442 39.259C49.1734 40.0011 51.0199 40.3721 53.1838 40.3721C55.0015 40.3721 56.6894 40.0011 58.2474 39.259C59.8054 38.5169 61.0605 37.361 62.0126 35.7912C62.9936 34.2499 63.484 32.2948 63.484 29.9259V10.6603H58.8966V29.9259C58.8966 31.41 58.608 32.6231 58.031 33.5649C57.4828 34.5068 56.7615 35.2061 55.8671 35.6627C54.9727 36.1194 54.035 36.3477 53.054 36.3477C51.9288 36.3477 50.9478 36.1337 50.1111 35.7055C49.3032 35.306 48.6685 34.7494 48.2069 34.0359C47.7452 33.3509 47.5 32.566 47.4711 31.6812H42.7971ZM42.4076 20.4215C42.4076 22.5621 42.8548 24.3888 43.7492 25.9015C44.6436 27.4142 45.8266 28.5701 47.298 29.3693C48.7695 30.1685 50.3708 30.5681 52.1019 30.5681C53.3425 30.5681 54.4822 30.3397 55.5209 29.8831C56.5595 29.4264 57.454 28.7699 58.2041 27.9137C58.9543 27.0289 59.5313 25.9586 59.9352 24.7028C60.368 23.4469 60.5844 22.0198 60.5844 20.4215C60.5844 18.8232 60.368 17.3961 59.9352 16.1403C59.5313 14.8844 58.9543 13.8141 58.2041 12.9293C57.454 12.0446 56.5595 11.3738 55.5209 10.9172C54.4822 10.4605 53.3425 10.2322 52.1019 10.2322C50.3708 10.2322 48.7695 10.6317 47.298 11.4309C45.8266 12.2301 44.6436 13.386 43.7492 14.8987C42.8548 16.4114 42.4076 18.2524 42.4076 20.4215ZM47.2547 20.4215C47.2547 19.1086 47.5288 17.9955 48.077 17.0821C48.6252 16.1688 49.3465 15.4695 50.2409 14.9843C51.1642 14.4991 52.1596 14.2565 53.2271 14.2565C53.8907 14.2565 54.5543 14.3992 55.2179 14.6847C55.9104 14.9415 56.5307 15.3268 57.0789 15.8406C57.6271 16.3543 58.0599 16.9965 58.3772 17.7671C58.7234 18.5378 58.8966 19.4226 58.8966 20.4215C58.8966 21.4205 58.7234 22.3053 58.3772 23.0759C58.0599 23.8465 57.6271 24.4887 57.0789 25.0024C56.5307 25.5162 55.9104 25.9015 55.2179 26.1584C54.5543 26.4153 53.8907 26.5437 53.2271 26.5437C52.1596 26.5437 51.1642 26.3154 50.2409 25.8587C49.3465 25.3735 48.6252 24.6742 48.077 23.7609C47.5288 22.8476 47.2547 21.7344 47.2547 20.4215Z" fill="#202020"/>
<path d="M67.3764 2.82562C67.3764 3.62478 67.6649 4.29551 68.2419 4.8378C68.819 5.38009 69.5114 5.65124 70.3193 5.65124C71.156 5.65124 71.8484 5.38009 72.3966 4.8378C72.9737 4.29551 73.2622 3.62478 73.2622 2.82562C73.2622 2.02646 72.9737 1.35573 72.3966 0.813435C71.8484 0.271145 71.156 0 70.3193 0C69.5114 0 68.819 0.271145 68.2419 0.813435C67.6649 1.35573 67.3764 2.02646 67.3764 2.82562ZM68.0255 10.6603V30.354H72.613V10.6603H68.0255Z" fill="#202020"/>
<path d="M81.8583 39.7727V10.6603H77.141V39.7727H81.8583ZM98.3473 20.5071C98.3473 18.3094 97.9001 16.44 97.0057 14.8987C96.1113 13.3575 94.9283 12.1873 93.4569 11.3881C91.9854 10.5604 90.3841 10.1465 88.653 10.1465C87.3835 10.1465 86.2294 10.3891 85.1907 10.8744C84.1809 11.3596 83.3009 12.0588 82.5508 12.9722C81.8295 13.8569 81.2668 14.9415 80.8629 16.2259C80.4878 17.4817 80.3003 18.9088 80.3003 20.5071C80.3003 22.1055 80.4878 23.5468 80.8629 24.8312C81.2668 26.087 81.8295 27.1716 82.5508 28.0849C83.3009 28.9697 84.1809 29.6547 85.1907 30.1399C86.2294 30.6251 87.3835 30.8677 88.653 30.8677C90.3841 30.8677 91.9854 30.4682 93.4569 29.669C94.9283 28.8413 96.1113 27.6568 97.0057 26.1156C97.9001 24.5743 98.3473 22.7048 98.3473 20.5071ZM93.5001 20.5071C93.5001 21.8201 93.226 22.9332 92.6779 23.8465C92.1297 24.7598 91.4084 25.4591 90.5139 25.9443C89.6195 26.4295 88.6241 26.6721 87.5278 26.6721C86.8642 26.6721 86.1861 26.5437 85.4937 26.2868C84.8301 26.0014 84.2242 25.6018 83.676 25.0881C83.1278 24.5743 82.6806 23.9321 82.3344 23.1615C82.017 22.3909 81.8583 21.5061 81.8583 20.5071C81.8583 19.5082 82.017 18.6234 82.3344 17.8528C82.6806 17.0821 83.1278 16.44 83.676 15.9262C84.2242 15.4125 84.8301 15.0272 85.4937 14.7703C86.1861 14.4849 86.8642 14.3422 87.5278 14.3422C88.6241 14.3422 89.6195 14.5848 90.5139 15.07C91.4084 15.5552 92.1297 16.2544 92.6779 17.1678C93.226 18.0811 93.5001 19.1942 93.5001 20.5071Z" fill="#202020"/>
<path d="M99.5111 20.5071C99.5111 22.5051 99.9727 24.2889 100.896 25.8587C101.848 27.3999 103.132 28.613 104.748 29.4977C106.392 30.354 108.224 30.7821 110.244 30.7821C112.293 30.7821 114.125 30.354 115.74 29.4977C117.356 28.613 118.626 27.3999 119.549 25.8587C120.501 24.2889 120.977 22.5051 120.977 20.5071C120.977 18.4807 120.501 16.6968 119.549 15.1556C118.626 13.6143 117.356 12.4156 115.74 11.5593C114.125 10.6746 112.293 10.2322 110.244 10.2322C108.224 10.2322 106.392 10.6746 104.748 11.5593C103.132 12.4156 101.848 13.6143 100.896 15.1556C99.9727 16.6968 99.5111 18.4807 99.5111 20.5071ZM104.315 20.5071C104.315 19.2799 104.575 18.2095 105.094 17.2962C105.613 16.3543 106.32 15.6265 107.215 15.1128C108.109 14.5705 109.119 14.2993 110.244 14.2993C111.369 14.2993 112.379 14.5705 113.274 15.1128C114.168 15.6265 114.875 16.3543 115.394 17.2962C115.913 18.2095 116.173 19.2799 116.173 20.5071C116.173 21.7344 115.913 22.819 115.394 23.7609C114.875 24.6742 114.168 25.402 113.274 25.9443C112.379 26.4581 111.369 26.7149 110.244 26.7149C109.119 26.7149 108.109 26.4581 107.215 25.9443C106.32 25.402 105.613 24.6742 105.094 23.7609C104.575 22.819 104.315 21.7344 104.315 20.5071Z" fill="#202020"/>
<path fill-rule="evenodd" clip-rule="evenodd" d="M29.8667 9.35017C26.7211 6.84379 22.7316 5.34517 18.3909 5.34517C8.23388 5.34517 0 13.5507 0 23.6726C0 33.7946 8.23388 42.0001 18.3909 42.0001C28.5479 42.0001 36.7818 33.7946 36.7818 23.6726C36.7818 19.6425 35.4765 15.9163 33.2643 12.8907L40.7641 5.41681L37.2889 1.95361L29.8667 9.35017ZM26.1549 13.0492L15.1324 24.0337L18.6076 27.4969L29.5208 16.6213C30.8233 18.6587 31.5779 21.0779 31.5779 23.6726C31.5779 30.9305 25.6739 36.8141 18.3909 36.8141C11.1079 36.8141 5.20392 30.9305 5.20392 23.6726C5.20392 16.4148 11.1079 10.5311 18.3909 10.5311C21.2934 10.5311 23.9769 11.4656 26.1549 13.0492Z" fill="#5ADD9E"/>
</svg>
