<svg width="120" height="37" viewBox="0 0 120 37" fill="none" xmlns="http://www.w3.org/2000/svg">
<path fill-rule="evenodd" clip-rule="evenodd" d="M35.2596 22.3815V36.0885H0V0.298096H35.2596V14.0051H46.2292V22.3815H35.2596ZM4.70212 5.00736H30.5575V14.0051H4.70212V5.00736ZM4.70212 22.3815V31.3792H30.5575V22.3815H4.70212Z" fill="#5ADD9E"/>
<path d="M52.1353 29.03C53.4476 32.9669 56.4301 34.9155 61.0829 34.9155C63.9859 34.9155 66.2526 34.0009 67.8433 32.2113C69.434 30.4218 70.2293 28.0358 70.2293 25.0533V7.79435H66.0538V10.3394C64.7812 8.43062 62.9519 7.39668 60.0887 7.39668C55.1178 7.39668 51.1411 11.4132 51.1411 17.2987C51.1411 22.9456 54.919 26.6439 59.691 26.6439C62.7531 26.6439 65.0596 25.3316 66.0538 23.2637V25.2521C66.0538 29.03 64.5426 31.3365 61.0829 31.3365C58.4185 31.3365 56.5097 29.9844 55.9132 27.4393L52.1353 29.03ZM66.2128 17.0601C66.2128 18.8098 65.6959 20.2414 64.6619 21.3947C63.628 22.5082 62.3157 23.0649 60.7647 23.0649C57.6231 23.0649 55.3167 20.8379 55.3167 17.2987C55.3167 13.4413 57.6231 10.9757 60.7647 10.9757C63.8666 10.9757 66.2128 13.5208 66.2128 17.0601Z" fill="#202020"/>
<path d="M73.3343 7.79435V26.6439H77.5098V7.79435H73.3343ZM73.1354 4.57321H77.7086V0H73.1354V4.57321Z" fill="#202020"/>
<path d="M80.6275 7.79435V34.5178H84.803V24.0193C85.9563 26.0474 88.2628 27.0416 90.7681 27.0416C96.1366 27.0416 99.7157 23.1047 99.7157 17.3384C99.7157 11.5722 96.2957 7.39668 91.1658 7.39668C88.5809 7.39668 85.9165 8.90783 84.6439 11.1348V7.79435H80.6275ZM90.092 23.3433C87.2288 23.3433 84.6439 20.997 84.6439 17.3384C84.6439 13.6799 87.3083 11.1745 90.092 11.1745C93.0746 11.1745 95.5401 13.7196 95.5401 17.3384C95.5401 20.9573 93.1143 23.3433 90.092 23.3433Z" fill="#202020"/>
<path d="M100.594 17.2191C100.594 22.7865 104.61 27.0416 110.297 27.0416C115.984 27.0416 120 22.7865 120 17.2191C120 11.6518 115.984 7.39668 110.297 7.39668C104.61 7.39668 100.594 11.6518 100.594 17.2191ZM115.824 17.2191C115.824 20.7584 113.478 23.2637 110.297 23.2637C107.115 23.2637 104.769 20.7584 104.769 17.2191C104.769 13.6799 107.115 11.1745 110.297 11.1745C113.478 11.1745 115.824 13.6799 115.824 17.2191Z" fill="#202020"/>
</svg>
